<svg xmlns="http://www.w3.org/2000/svg" width="650" height="214" viewBox="0 0 650 214">
  <defs>
    <style>
      .bg { fill: #ffffff; stroke: #e4e2e2; stroke-width: 1px; }
      .header-icon { fill: #2f80ed; }
      .header-text { font: 600 18px 'Segoe UI', -apple-system, BlinkMacSystemFont, Roboto, Helvetica, Arial, sans-serif; fill: #2f80ed; }
      .stat-icon { fill: #586069; }
      .stat-label { font: 400 14px 'Segoe UI', -apple-system, BlinkMacSystemFont, Roboto, Helvetica, Arial, sans-serif; fill: #586069; }
      .stat-val { font: 600 15px 'Segoe UI', -apple-system, BlinkMacSystemFont, Roboto, Helvetica, Arial, sans-serif; fill: #24292e; }
      .stat-add { font: 600 15px 'Segoe UI', -apple-system, BlinkMacSystemFont, Roboto, Helvetica, Arial, sans-serif; fill: #28a745; }
      .stat-del { font: 600 15px 'Segoe UI', -apple-system, BlinkMacSystemFont, Roboto, Helvetica, Arial, sans-serif; fill: #d73a49; }
      .lang-name { font: 400 12px 'Segoe UI', -apple-system, BlinkMacSystemFont, Roboto, Helvetica, Arial, sans-serif; fill: #24292e; }
      .lang-pct { font: 600 12px 'Segoe UI', -apple-system, BlinkMacSystemFont, Roboto, Helvetica, Arial, sans-serif; fill: #586069; }
      .section-text { font: 600 15px 'Segoe UI', -apple-system, BlinkMacSystemFont, Roboto, Helvetica, Arial, sans-serif; fill: #24292e; }
      .divider { stroke: #e4e2e2; stroke-width: 1px; }
      .lang-bar-bg { fill: #eaecef; }

      @media (prefers-color-scheme: dark) {
        .bg { fill: #0d1117; stroke: #30363d; }
        .header-icon { fill: #58a6ff; }
        .header-text { fill: #58a6ff; }
        .stat-icon { fill: #8b949e; }
        .stat-label { fill: #8b949e; }
        .stat-val { fill: #c9d1d9; }
        .stat-add { fill: #3fb950; }
        .stat-del { fill: #f85149; }
        .lang-name { fill: #c9d1d9; }
        .lang-pct { fill: #8b949e; }
        .section-text { fill: #c9d1d9; }
        .divider { stroke: #30363d; }
        .lang-bar-bg { fill: #30363d; }
      }
    </style>
    
    <clipPath id="bar-clip-0">
      <rect x="35" y="135" width="180" height="10" rx="5"/>
    </clipPath>
    
    <clipPath id="bar-clip-1">
      <rect x="235" y="135" width="180" height="10" rx="5"/>
    </clipPath>
    
    <clipPath id="bar-clip-2">
      <rect x="435" y="135" width="180" height="10" rx="5"/>
    </clipPath>
    
  </defs>

  <rect width="649" height="213" x="0.5" y="0.5" rx="6" class="bg"/>

  
  

  <text x="125" y="22" text-anchor="middle" class="section-text">Recent 7d</text>

  
  <g transform="translate(35, 40)">
    <svg width="16" height="16" viewBox="0 0 16 16" class="stat-icon" y="-8">
      <path d="M2 2.5A2.5 2.5 0 0 1 4.5 0h8.75a.75.75 0 0 1 .75.75v12.5a.75.75 0 0 1-.75.75h-2.5a.75.75 0 0 1 0-1.5h1.75v-2h-8a1 1 0 0 0-.714 1.7.75.75 0 1 1-1.072 1.05A2.495 2.495 0 0 1 2 11.5Zm10.5-1h-8a1 1 0 0 0-1 1v6.708A2.486 2.486 0 0 1 4.5 9h8ZM5 12.25a.25.25 0 0 1 .25-.25h3.5a.25.25 0 0 1 .25.25v3.25a.25.25 0 0 1-.4.2l-1.45-1.087a.25.25 0 0 1-.3 0L5.4 15.7a.25.25 0 0 1-.4-.2Z"></path>
    </svg>
    <text x="22" y="0" dominant-baseline="central" class="stat-label">Repos:</text>
    <text x="115" y="0" dominant-baseline="central" class="stat-val">7</text>
  </g>
  
  <g transform="translate(35, 64)">
    <svg width="16" height="16" viewBox="0 0 16 16" class="stat-icon" y="-8">
      <path d="M10.5 7.75a2.5 2.5 0 1 1-5 0 2.5 2.5 0 0 1 5 0Zm1.43.75a4.002 4.002 0 0 1-7.86 0H.75a.75.75 0 1 1 0-1.5h3.32a4.001 4.001 0 0 1 7.86 0h3.32a.75.75 0 1 1 0 1.5h-3.32Z"></path>
    </svg>
    <text x="22" y="0" dominant-baseline="central" class="stat-label">Commits:</text>
    <text x="115" y="0" dominant-baseline="central" class="stat-val">45</text>
  </g>
  
  <g transform="translate(35, 88)">
    <svg width="16" height="16" viewBox="0 0 16 16" class="stat-icon" y="-8">
      <path d="M7.75 2a.75.75 0 0 1 .75.75V7h4.25a.75.75 0 0 1 0 1.5H8.5v4.25a.75.75 0 0 1-1.5 0V8.5H2.75a.75.75 0 0 1 0-1.5H7V2.75A.75.75 0 0 1 7.75 2Z"></path>
    </svg>
    <text x="22" y="0" dominant-baseline="central" class="stat-label">Added:</text>
    <text x="115" y="0" dominant-baseline="central" class="stat-add">+27659</text>
  </g>
  
  <g transform="translate(35, 112)">
    <svg width="16" height="16" viewBox="0 0 16 16" class="stat-icon" y="-8">
      <path d="M2.75 7.75h10.5a.75.75 0 0 1 0 1.5H2.75a.75.75 0 0 1 0-1.5Z"></path>
    </svg>
    <text x="22" y="0" dominant-baseline="central" class="stat-label">Deleted:</text>
    <text x="115" y="0" dominant-baseline="central" class="stat-del">-6908</text>
  </g>
  

  
  <rect x="35" y="135" width="180" height="10" rx="5" class="lang-bar-bg"/>
  <g clip-path="url(#bar-clip-0)">
    
    <rect x="35" y="135" width="158.0808446019235" height="10" fill="#dea584"/>
    
    <rect x="193.0808446019235" y="135" width="13.790585002530912" height="10" fill="#f1e05a"/>
    
    <rect x="206.87142960445442" y="135" width="3.9243618482898266" height="10" fill="#7e7eff"/>
    
  </g>

  
  <circle cx="40" cy="155" r="4" fill="#dea584"/>
  <text x="52" y="159" class="lang-name">Rust</text>
  <text x="145" y="159" class="lang-pct">87.8%</text>
  
  <circle cx="40" cy="175" r="4" fill="#f1e05a"/>
  <text x="52" y="179" class="lang-name">JavaScript</text>
  <text x="145" y="179" class="lang-pct">7.7%</text>
  
  <circle cx="40" cy="195" r="4" fill="#7e7eff"/>
  <text x="52" y="199" class="lang-name">Nix</text>
  <text x="145" y="199" class="lang-pct">2.2%</text>
  
  
  
  
  <line x1="225" y1="10" x2="225" y2="202" class="divider"/>
  

  <text x="325" y="22" text-anchor="middle" class="section-text">Recent 30d</text>

  
  <g transform="translate(235, 40)">
    <svg width="16" height="16" viewBox="0 0 16 16" class="stat-icon" y="-8">
      <path d="M2 2.5A2.5 2.5 0 0 1 4.5 0h8.75a.75.75 0 0 1 .75.75v12.5a.75.75 0 0 1-.75.75h-2.5a.75.75 0 0 1 0-1.5h1.75v-2h-8a1 1 0 0 0-.714 1.7.75.75 0 1 1-1.072 1.05A2.495 2.495 0 0 1 2 11.5Zm10.5-1h-8a1 1 0 0 0-1 1v6.708A2.486 2.486 0 0 1 4.5 9h8ZM5 12.25a.25.25 0 0 1 .25-.25h3.5a.25.25 0 0 1 .25.25v3.25a.25.25 0 0 1-.4.2l-1.45-1.087a.25.25 0 0 1-.3 0L5.4 15.7a.25.25 0 0 1-.4-.2Z"></path>
    </svg>
    <text x="22" y="0" dominant-baseline="central" class="stat-label">Repos:</text>
    <text x="115" y="0" dominant-baseline="central" class="stat-val">11</text>
  </g>
  
  <g transform="translate(235, 64)">
    <svg width="16" height="16" viewBox="0 0 16 16" class="stat-icon" y="-8">
      <path d="M10.5 7.75a2.5 2.5 0 1 1-5 0 2.5 2.5 0 0 1 5 0Zm1.43.75a4.002 4.002 0 0 1-7.86 0H.75a.75.75 0 1 1 0-1.5h3.32a4.001 4.001 0 0 1 7.86 0h3.32a.75.75 0 1 1 0 1.5h-3.32Z"></path>
    </svg>
    <text x="22" y="0" dominant-baseline="central" class="stat-label">Commits:</text>
    <text x="115" y="0" dominant-baseline="central" class="stat-val">171</text>
  </g>
  
  <g transform="translate(235, 88)">
    <svg width="16" height="16" viewBox="0 0 16 16" class="stat-icon" y="-8">
      <path d="M7.75 2a.75.75 0 0 1 .75.75V7h4.25a.75.75 0 0 1 0 1.5H8.5v4.25a.75.75 0 0 1-1.5 0V8.5H2.75a.75.75 0 0 1 0-1.5H7V2.75A.75.75 0 0 1 7.75 2Z"></path>
    </svg>
    <text x="22" y="0" dominant-baseline="central" class="stat-label">Added:</text>
    <text x="115" y="0" dominant-baseline="central" class="stat-add">+62393</text>
  </g>
  
  <g transform="translate(235, 112)">
    <svg width="16" height="16" viewBox="0 0 16 16" class="stat-icon" y="-8">
      <path d="M2.75 7.75h10.5a.75.75 0 0 1 0 1.5H2.75a.75.75 0 0 1 0-1.5Z"></path>
    </svg>
    <text x="22" y="0" dominant-baseline="central" class="stat-label">Deleted:</text>
    <text x="115" y="0" dominant-baseline="central" class="stat-del">-14183</text>
  </g>
  

  
  <rect x="235" y="135" width="180" height="10" rx="5" class="lang-bar-bg"/>
  <g clip-path="url(#bar-clip-1)">
    
    <rect x="235" y="135" width="110.68245928965251" height="10" fill="#dea584"/>
    
    <rect x="345.6824592896525" y="135" width="24.285805872547762" height="10" fill="#7e7eff"/>
    
    <rect x="369.9682651622003" y="135" width="9.823374791639953" height="10" fill="#3178c6"/>
    
  </g>

  
  <circle cx="240" cy="155" r="4" fill="#dea584"/>
  <text x="252" y="159" class="lang-name">Rust</text>
  <text x="345" y="159" class="lang-pct">61.5%</text>
  
  <circle cx="240" cy="175" r="4" fill="#7e7eff"/>
  <text x="252" y="179" class="lang-name">Nix</text>
  <text x="345" y="179" class="lang-pct">13.5%</text>
  
  <circle cx="240" cy="195" r="4" fill="#3178c6"/>
  <text x="252" y="199" class="lang-name">TypeScript</text>
  <text x="345" y="199" class="lang-pct">5.5%</text>
  
  
  
  
  <line x1="425" y1="10" x2="425" y2="202" class="divider"/>
  

  <text x="525" y="22" text-anchor="middle" class="section-text">Recent 365d</text>

  
  <g transform="translate(435, 40)">
    <svg width="16" height="16" viewBox="0 0 16 16" class="stat-icon" y="-8">
      <path d="M2 2.5A2.5 2.5 0 0 1 4.5 0h8.75a.75.75 0 0 1 .75.75v12.5a.75.75 0 0 1-.75.75h-2.5a.75.75 0 0 1 0-1.5h1.75v-2h-8a1 1 0 0 0-.714 1.7.75.75 0 1 1-1.072 1.05A2.495 2.495 0 0 1 2 11.5Zm10.5-1h-8a1 1 0 0 0-1 1v6.708A2.486 2.486 0 0 1 4.5 9h8ZM5 12.25a.25.25 0 0 1 .25-.25h3.5a.25.25 0 0 1 .25.25v3.25a.25.25 0 0 1-.4.2l-1.45-1.087a.25.25 0 0 1-.3 0L5.4 15.7a.25.25 0 0 1-.4-.2Z"></path>
    </svg>
    <text x="22" y="0" dominant-baseline="central" class="stat-label">Repos:</text>
    <text x="115" y="0" dominant-baseline="central" class="stat-val">26</text>
  </g>
  
  <g transform="translate(435, 64)">
    <svg width="16" height="16" viewBox="0 0 16 16" class="stat-icon" y="-8">
      <path d="M10.5 7.75a2.5 2.5 0 1 1-5 0 2.5 2.5 0 0 1 5 0Zm1.43.75a4.002 4.002 0 0 1-7.86 0H.75a.75.75 0 1 1 0-1.5h3.32a4.001 4.001 0 0 1 7.86 0h3.32a.75.75 0 1 1 0 1.5h-3.32Z"></path>
    </svg>
    <text x="22" y="0" dominant-baseline="central" class="stat-label">Commits:</text>
    <text x="115" y="0" dominant-baseline="central" class="stat-val">670</text>
  </g>
  
  <g transform="translate(435, 88)">
    <svg width="16" height="16" viewBox="0 0 16 16" class="stat-icon" y="-8">
      <path d="M7.75 2a.75.75 0 0 1 .75.75V7h4.25a.75.75 0 0 1 0 1.5H8.5v4.25a.75.75 0 0 1-1.5 0V8.5H2.75a.75.75 0 0 1 0-1.5H7V2.75A.75.75 0 0 1 7.75 2Z"></path>
    </svg>
    <text x="22" y="0" dominant-baseline="central" class="stat-label">Added:</text>
    <text x="115" y="0" dominant-baseline="central" class="stat-add">+342045</text>
  </g>
  
  <g transform="translate(435, 112)">
    <svg width="16" height="16" viewBox="0 0 16 16" class="stat-icon" y="-8">
      <path d="M2.75 7.75h10.5a.75.75 0 0 1 0 1.5H2.75a.75.75 0 0 1 0-1.5Z"></path>
    </svg>
    <text x="22" y="0" dominant-baseline="central" class="stat-label">Deleted:</text>
    <text x="115" y="0" dominant-baseline="central" class="stat-del">-4502358</text>
  </g>
  

  
  <rect x="435" y="135" width="180" height="10" rx="5" class="lang-bar-bg"/>
  <g clip-path="url(#bar-clip-2)">
    
    <rect x="435" y="135" width="97.2785507746374" height="10" fill="#3178c6"/>
    
    <rect x="532.2785507746374" y="135" width="38.22337741315846" height="10" fill="#dea584"/>
    
    <rect x="570.5019281877959" y="135" width="13.766120614798073" height="10" fill="#00ADD8"/>
    
  </g>

  
  <circle cx="440" cy="155" r="4" fill="#3178c6"/>
  <text x="452" y="159" class="lang-name">TypeScript</text>
  <text x="545" y="159" class="lang-pct">54.0%</text>
  
  <circle cx="440" cy="175" r="4" fill="#dea584"/>
  <text x="452" y="179" class="lang-name">Rust</text>
  <text x="545" y="179" class="lang-pct">21.2%</text>
  
  <circle cx="440" cy="195" r="4" fill="#00ADD8"/>
  <text x="452" y="199" class="lang-name">Go</text>
  <text x="545" y="199" class="lang-pct">7.6%</text>
  
  
  
</svg>
